<svg id="Layer_1" data-name="Layer 1" xmlns="http://www.w3.org/2000/svg" viewBox="0 0 1681.31 493.22"><defs><style>.cls-1{fill:#179a7b;}</style></defs><path class="cls-1" d="M168.57,41.15c33.28-.89,82.55,2.74,131.6-2.8,11-1.24,13,1.17,10.86,12.67A408.72,408.72,0,0,0,304,126.77c0,7.42-.53,13.28-10.7,13.7-9.2.38-11.06-3.42-12.37-11.51a251.77,251.77,0,0,0-9.26-36.77c-4.54-14.09-15.11-21.58-29.83-21.78-29.09-.38-58.2.07-87.29-.33C143,69.92,139.36,76.89,139.28,86c-.41,43.94-.16,87.89-.43,131.84,0,7.56,3.9,8.61,9.94,8.54,28.57-.33,57.15-.16,85.7-.9,13.81-.36,22-8.63,25.46-21.93,1.83-7.11,4.61-14,6-21.18,1.5-7.79,6.76-7.31,12-6.2s11.83.63,10.95,9.88c-3.65,38.52-4.77,77.12-1.91,115.76.43,5.86-2.34,9.38-8.08,9.34-5.2,0-11.85,3-13.9-6-2.12-9.2-5-18.25-8-27.24-3.69-11.24-11.22-17.17-23.56-17.24-27-.15-54-.47-80.93-1.41-10-.35-14.07,2.28-13.84,13.18.7,33.34.1,66.71.47,100.07.33,30.43,6.31,36.74,36.28,40.59,5.22.68,10.37,2.81,15.54,2.77,8.21-.07,11.47,2.91,10.73,11.28s-4.79,10.26-12.58,10.05c-32.78-.88-65.57-1.49-98.37-1.61-20.61-.07-41.24.73-61.85,1.54-7.88.3-13.4-.73-13.93-10.42-.49-8.86,3.81-11.16,11.46-10.59a20,20,0,0,0,4.74-.4c33.15-5.58,37.5-10.46,37.56-44.64q.23-132.65,0-265.28C68.71,69.42,66.56,67.36,29,60.52c-5.25-1-12.41,1-13.83-7.32-1.88-11,2.39-15.27,13.81-14.4C70.14,41.93,111.42,41.6,168.57,41.15Z"/><path class="cls-1" d="M659.84,191.53a242.45,242.45,0,0,1,9.34-46.38c24-75.71,77-100.3,150.79-88.73,36.47,5.72,63.61,22,70.73,61.52,1.12,6.21,2.89,12.36,3.44,18.62.62,7.05,1.48,12.33,10.84,11.26,8.36-1,11.41-4.25,11.75-13,.8-20.58,2-41.25,4.88-61.64,4.33-31,5-30.95-26.67-35.11-1.57-.2-3.12-.55-4.68-.79-49.72-7.64-99.57-12.64-149.4-1.92C664.31,51.8,610,94.36,586.46,171.17,571,221.86,574.1,272.64,590.93,322.28c18.65,55,56.25,91.73,111.58,110.27,54.68,18.33,109.77,19,165.28,4.69,9-2.31,19-2.92,25.62-10.88,19.61-23.46,31.73-50.86,41.43-79.49,2.87-8.46-4.33-10.82-9.4-14.24-6.69-4.52-8,1.9-10.36,5.48-8.49,12.73-16.4,25.87-25.31,38.3-12.69,17.71-29.15,31.26-50.85,35.46-50.43,9.76-95.93-.79-131.87-39-38.52-40.95-48.51-92.31-48.92-147.31C658.62,214.77,658.55,203.07,659.84,191.53Z"/><path class="cls-1" d="M556.83,398.21c-32.68,5.59-39.2-.11-38.7-34q.68-46.82,1.52-93.6a150.47,150.47,0,0,0-6-45.44c-11.53-39.29-56.18-67.31-99-51.05-14.81,5.66-28.76,13.11-43.33,18.93-22.22,8.86-29.07,27.27-34.72,47.5-2.75,9.87,3.77,13,10.59,16.48,9,4.61,10.55-2.51,13.36-8.08,4-8,8.19-15.92,12.48-23.76,5.5-10.07,13.86-14.77,25.58-15.7,37.18-2.88,59.81,18,61.67,55.31.85,16.92-5.39,25.08-20.85,29.61-25.73,7.54-51.22,15.89-76.67,24.38-27.11,9.06-37,24.59-34.87,53.37.24,3.16.74,6.3,1.11,9.44,5.91,50.31,43.51,72.12,88.82,51.05,13.79-6.44,26.89-14.36,40.32-21.62,10.07,28.87,25.62,37.34,55.92,30.56C546.13,434.44,559.41,421,556.83,398.21Zm-98.26-21c-.86,16-13.88,24.5-31.4,23.22-29.41-2.1-48.6-35.84-35.5-62.26,2-4,5-6.41,9-8.3,18.54-8.6,37.84-15,58.18-21.48C458.88,332.11,459.79,354.72,458.57,377.22Z"/><path class="cls-1" d="M1191.41,399.21c-20.27,5-29.86-3.49-30.17-24.63-.26-20.1,0-40.19,0-60.29h.28c0-21.16.8-42.34-.15-63.44-2.64-58.51-56.38-99.32-113.38-73.35-13.92,6.35-27.52,13.17-41.17,20C987.59,207.13,983.65,225,980,243.17c-2,10.2,6.31,11.91,13,14.74,8.6,3.64,7.6-4.63,9.92-8.31,3.05-4.9,5.17-10.38,7.92-15.49,12.65-23.41,21.36-27.68,48.86-24.21a49.41,49.41,0,0,1,40.72,35.26c9,32.92,4.48,41.56-27.7,52.26q-39.7,13.18-79.48,26.07c-7.37,2.41-12.93,6.33-15.88,14-12.3,32-7.69,61.4,14.25,87.41,13.78,16.33,31.43,22.27,52.63,14.88a170.15,170.15,0,0,0,36.93-17.72c11.82-7.66,19.6-14.42,28.13,6.07,7.73,18.6,28.65,18.21,46.11,13.38,18.84-5.19,40.13-8.64,46-32.68C1203.5,400.29,1202.74,396.39,1191.41,399.21ZM1102.29,348c-.39,0-.78,0-1.17,0,0,7.95.15,15.9,0,23.83-.5,20.94-13.21,31.64-33.59,28.5-26.66-4.12-42.82-31.32-34.39-57.26,2.1-6.46,4.93-11.37,11.58-13.8,16.31-6,32.73-11.74,48.77-18.37,8.41-3.46,8.84.87,8.84,6.93Z"/><path class="cls-1" d="M1660.57,368.73c-4.83-3.09-8.25,3.1-12,5.55-62.33,41.17-130.73,13.84-146.21-58.24-2.49-11.56-.15-16.67,12.65-17,25.36-.52,50.74-1.66,76-3.66,20.51-1.6,40.89-4.83,61.32-7.34,9.42-1.15,17.45-9.61,12.88-15.37-13.49-17-12.08-38.73-22.26-56.57-20.08-35.17-48.9-50-83.23-46.59-89.27,8.82-121.82,74.72-120.2,145.06.59,16,2.67,31.69,7.49,46.89,13.89,43.73,40.55,74,88.11,80.24,47.86,6.26,86.37-13.3,119.46-46.17a21,21,0,0,0,6-12.52C1661.33,378.11,1666.31,372.44,1660.57,368.73ZM1501.33,264.5c3.18-19.73,4.91-40,18.58-56.25,15.76-18.77,36.49-19.6,53.32-1.95,14.6,15.34,19.25,34.59,21.37,54.86.74,7-3,9.51-9.11,9.92q-20.57,1.4-41.09,2.75a5.65,5.65,0,0,1,0-.58c-11.11,0-22.22-.11-33.31,0C1504.86,273.38,1500.16,271.8,1501.33,264.5Z"/><path class="cls-1" d="M1317.34,177.24c.18-8-1.8-10.87-10-7.06-23.55,10.88-48.39,17.54-74,21.66-6.23,1-10.51,4-11.55,11-1.15,7.73,4.82,8.54,9.38,10.3,16.09,6.22,23.43,16.92,23.76,34.95.79,42.84,1.79,85.66-.24,128.48-1.43,30.07-1.39,30.56-30.55,39.47-9.22,2.81-5.23,8.83-5.84,13.73-.84,6.63,3.43,7.59,9,7.28a1198,1198,0,0,1,129.92,0c8.65.45,11.09-3.42,11.06-11.17-.08-17.38-14.94-10.14-22.36-12-23-5.79-27.62-8.89-28-32.5-.67-40.19-1-80.39-.61-120.59.26-26.08,23.45-40.72,47.32-30.76a59.88,59.88,0,0,1,19.7,13.07c7.49,7.58,13.32,7,18.46-2.57,6.48-12.09,13.07-24.12,17.15-37.27,5.07-16.3-.24-26.31-16.56-31.58-19.81-6.4-36.18.93-50.74,13.56-12.19,10.56-23.73,21.87-35.37,32.68C1317.26,204.63,1317,190.93,1317.34,177.24Z"/></svg>